<svg width="28" height="31" viewBox="0 0 28 31" fill="none" xmlns="http://www.w3.org/2000/svg">
<path d="M9.4914 23.658H20.8818C21.5055 23.658 22.0112 23.1453 22.0112 22.5128C22.0112 21.8803 21.5055 21.3676 20.8818 21.3676H9.47763C8.85388 21.3676 8.34823 21.8803 8.34823 22.5128C8.34823 23.1453 8.85388 23.658 9.47763 23.658H9.4914Z" fill="currentColor"/>
<path d="M9.49109 16.9683H20.8815C21.3173 17.017 21.7422 16.8087 21.9752 16.4321C22.2082 16.0554 22.2082 15.5768 21.9752 15.2002C21.7422 14.8236 21.3173 14.6152 20.8815 14.664H9.47732C8.89796 14.7287 8.45944 15.2251 8.45944 15.8161C8.45944 16.4071 8.89796 16.9035 9.47732 16.9683H9.49109Z" fill="currentColor"/>
<path d="M9.49122 10.2788H13.8297C14.4091 10.214 14.8476 9.71766 14.8476 9.12664C14.8476 8.53562 14.4091 8.03925 13.8297 7.97447H9.49122C8.91186 8.03925 8.47334 8.53562 8.47334 9.12664C8.47334 9.71766 8.91186 10.214 9.49122 10.2788Z" fill="currentColor"/>
<path d="M20.1654 0H8.6404C3.84047 0 0.965714 2.91882 0.965714 7.82776V22.2229C0.965714 27.1185 3.84047 30.0506 8.6404 30.0506C9.18757 29.9891 9.60173 29.5175 9.60173 28.9561C9.60173 28.3946 9.18757 27.923 8.6404 27.8615C4.97216 27.8615 3.11202 25.9643 3.11202 22.2229V7.82776C3.11202 4.08636 4.97216 2.18912 8.6404 2.18912H20.1654C23.8337 2.18912 25.6808 4.08636 25.6808 7.82776V22.2229C25.6808 25.9643 23.8337 27.8615 20.1654 27.8615H15.9118C15.3647 27.923 14.9505 28.3946 14.9505 28.9561C14.9505 29.5175 15.3647 29.9891 15.9118 30.0506H20.1784C24.9914 30.0506 27.8531 27.1185 27.8531 22.2229V7.82776C27.8401 2.93209 24.9654 0 20.1654 0Z" fill="currentColor"/>
</svg>
