<svg width="16" height="20" viewBox="0 0 16 20" fill="none" xmlns="http://www.w3.org/2000/svg">
<path fill-rule="evenodd" clip-rule="evenodd" d="M15.2933 4.17659C14.1755 2.93336 13.327 1.95828 12.2163 0.707324C12.0816 0.551336 11.9254 0.416113 11.7528 0.305918V4.54293C11.7523 4.68593 11.8072 4.82332 11.9055 4.92503C12.0038 5.02673 12.1374 5.08452 12.2772 5.08572H15.8404C15.7198 4.74809 15.5336 4.43887 15.2933 4.17659ZM12.015 6.53709C11.5711 6.53336 11.1466 6.35008 10.8345 6.02726C10.5223 5.70443 10.3479 5.2684 10.3492 4.81438V0.00272739C7.44391 -0.000909129 4.53865 -0.000909129 1.63339 0.00272739C0.62936 0.00681846 0.00177783 0.750574 0.00177783 1.91199C-0.00222228 4.70937 0.00177783 16.9281 0.00177783 18.0254C0.00177783 19.28 0.636893 20 1.7547 20H14.2506C15.3684 20 15.996 19.2918 15.996 18.0254C16 13.5052 15.996 11.0387 16 6.53809L12.015 6.53709ZM8.08642 16.5412C8.08695 16.5877 8.07851 16.6339 8.06157 16.6771C8.04463 16.7203 8.0195 16.7597 7.98768 16.793C7.95585 16.8262 7.91793 16.8527 7.87608 16.871C7.83422 16.8893 7.78925 16.8989 7.74375 16.8994H3.31339C3.22121 16.8984 3.13315 16.8602 3.06838 16.7931C3.00361 16.726 2.96739 16.6355 2.96763 16.5412V15.8366C2.9675 15.7424 3.00378 15.652 3.06854 15.585C3.1333 15.518 3.22128 15.4798 3.31339 15.4789H7.74375C7.78922 15.4794 7.83414 15.4889 7.87597 15.5072C7.9178 15.5254 7.95575 15.552 7.98757 15.5852C8.01939 15.6184 8.0445 15.6577 8.06146 15.7008C8.07843 15.744 8.08689 15.7901 8.08642 15.8366V16.5412ZM13.0306 13.1384C13.0311 13.1849 13.0227 13.231 13.0057 13.2742C12.9888 13.3174 12.9637 13.3568 12.9318 13.3901C12.9 13.4233 12.8621 13.4498 12.8202 13.4681C12.7784 13.4863 12.7334 13.496 12.6879 13.4965H3.31339C3.22121 13.4955 3.13315 13.4574 3.06838 13.3903C3.00361 13.3232 2.96739 13.2327 2.96763 13.1384V12.4342C2.96739 12.3399 3.00361 12.2494 3.06838 12.1823C3.13315 12.1152 3.22121 12.0769 3.31339 12.076H12.6879C12.7334 12.0765 12.7784 12.0861 12.8202 12.1044C12.8621 12.1227 12.9 12.1491 12.9318 12.1824C12.9637 12.2157 12.9888 12.2551 13.0057 12.2983C13.0227 12.3415 13.0311 12.3877 13.0306 12.4342V13.1384ZM13.0306 9.73546C13.031 9.78179 13.0225 9.82769 13.0055 9.87063C12.9885 9.91357 12.9633 9.95267 12.9314 9.98561C12.8996 10.0185 12.8617 10.0447 12.8198 10.0625C12.778 10.0804 12.7332 10.0896 12.6879 10.0896H3.31339C3.26795 10.0896 3.22294 10.0804 3.18096 10.0626C3.13898 10.0448 3.10087 10.0187 3.06876 9.98583C3.03664 9.95294 3.01118 9.91393 2.99383 9.87097C2.97648 9.82801 2.96757 9.78194 2.96763 9.73546V9.02865C2.96809 8.93491 3.00463 8.84509 3.06935 8.77872C3.13408 8.71236 3.22175 8.67479 3.31339 8.67407H12.6879C12.7793 8.67479 12.8666 8.71249 12.9308 8.77895C12.9951 8.8454 13.0309 8.93521 13.0306 9.02865V9.73546Z" fill="currentColor"/>
</svg>
