<svg width="13" height="24" viewBox="0 0 13 24" fill="none" xmlns="http://www.w3.org/2000/svg">
<path d="M7.11155 21.3625C7.11155 21.7002 6.83772 21.974 6.50003 21.974C6.16233 21.974 5.8885 21.7002 5.8885 21.3625C5.8885 21.0248 6.16233 20.751 6.50003 20.751C6.83772 20.751 7.11155 21.0248 7.11155 21.3625Z" fill="currentColor"/>
<path d="M11.5 4.10004H1.5V18.65H11.5V4.10004ZM8.68594 12.3495L6.77832 14.1983C6.62324 14.3487 6.37676 14.3487 6.22168 14.1983L4.31406 12.3495C4.15879 12.1952 4.15645 11.9446 4.30879 11.7871C4.46113 11.6299 4.71172 11.6245 4.8709 11.775L6.1 12.9662V9.2891C6.1 9.0682 6.2791 8.8891 6.5 8.8891C6.7209 8.8891 6.9 9.0682 6.9 9.2891V12.9662L8.1291 11.775C8.23145 11.6743 8.38008 11.6362 8.51816 11.6752C8.65645 11.7141 8.76328 11.8243 8.79785 11.9637C8.83242 12.103 8.78965 12.2502 8.68594 12.3495Z" fill="currentColor"/>
<path d="M1.6 0C0.716797 0.00097656 0.00097656 0.716797 0 1.6V21.6C0.00097656 22.4832 0.716797 23.199 1.6 23.2H11.4C12.2832 23.199 12.999 22.4832 13 21.6V1.6C12.999 0.716797 12.2832 0.00097656 11.4 0H1.6ZM4.25 1.3H8.75C8.9709 1.3 9.15 1.4791 9.15 1.7C9.15 1.9209 8.9709 2.1 8.75 2.1H4.25C4.0291 2.1 3.85 1.9209 3.85 1.7C3.85 1.4791 4.0291 1.3 4.25 1.3ZM6.5 22.774C5.72051 22.774 5.08848 22.142 5.08848 21.3625C5.08848 20.583 5.72051 19.951 6.5 19.951C7.27949 19.951 7.91152 20.583 7.91152 21.3625C7.91074 22.1418 7.2793 22.7732 6.5 22.774ZM12.3 3.7V19.05C12.3 19.2709 12.1209 19.45 11.9 19.45H1.1C0.879102 19.45 0.7 19.2709 0.7 19.05V3.7C0.7 3.4791 0.879102 3.3 1.1 3.3H11.9C12.1209 3.3 12.3 3.4791 12.3 3.7Z" fill="currentColor"/>
</svg>
