<svg width="22" height="24" viewBox="0 0 22 24" fill="none" xmlns="http://www.w3.org/2000/svg">
<path d="M13.5321 0.724937C13.5321 1.1251 13.2073 1.44987 12.8072 1.44987C10.0089 1.44987 7.73263 3.72615 7.73263 6.52439L7.73263 13.5321L10.874 13.5321C11.5119 13.5321 11.8348 14.2995 11.3979 14.7577L6.32336 20.0738C6.18708 20.2169 5.99763 20.2981 5.79948 20.2981C5.60133 20.2981 5.41188 20.2169 5.2756 20.0738L0.201075 14.7577C-0.237751 14.2976 0.088952 13.5321 0.724959 13.5321L3.86633 13.5321L3.86633 7.49097C3.86633 3.36079 7.22711 5.40614e-06 11.3573 5.2256e-06L12.8072 5.16223e-06C13.2073 5.14474e-06 13.5321 0.324773 13.5321 0.724937Z" fill="currentColor"/>
<path d="M20.5398 9.66576L17.3984 9.66576L17.3984 15.7069C17.3984 19.837 14.0376 23.1978 9.90744 23.1978L8.45758 23.1978C8.05742 23.1978 7.73265 22.873 7.73265 22.4729C7.73265 22.0727 8.05742 21.748 8.45758 21.748C11.2558 21.748 13.5321 19.4717 13.5321 16.6734L13.5321 9.66576L10.3907 9.66576C9.75569 9.66576 9.42609 8.9012 9.86684 8.44014L14.9414 3.12398C15.0777 2.98093 15.2671 2.89973 15.4652 2.89973C15.6634 2.89973 15.8528 2.98093 15.9891 3.12398L21.0637 8.44014C21.5025 8.9012 21.1758 9.66576 20.5398 9.66576Z" fill="currentColor"/>
</svg>
