<svg width="45" height="33" viewBox="2 8 45 33" fill="none" xmlns="http://www.w3.org/2000/svg">
<path d="M45 35C45 37.209 43.209 39 41 39H7C4.791 39 3 37.209 3 35V13C3 10.791 4.791 9 7 9H41C43.209 9 45 10.791 45 13V35Z" fill="#2100C4"/>
<path d="M15.186 19L12.56 26.832C12.56 26.832 11.893 23.519 11.827 23.103C10.332 19.692 8.126 19.882 8.126 19.882L10.726 30V29.998H13.887L18.258 19H15.186ZM17.689 30H20.56L22.296 19H19.389L17.689 30ZM38.008 19H34.987L30.277 30H33.129L33.717 28.429H37.313L37.619 30H40.232L38.008 19ZM34.513 26.328L36.076 22.171L36.894 26.328H34.513ZM26.369 22.206C26.369 21.6 26.867 21.149 28.295 21.149C29.223 21.149 30.286 21.823 30.286 21.823L30.752 19.514C30.752 19.514 29.394 18.999 28.061 18.999C25.042 18.999 23.485 20.443 23.485 22.271C23.485 25.577 27.464 25.124 27.464 26.822C27.464 27.113 27.233 27.786 25.576 27.786C23.914 27.786 22.817 27.177 22.817 27.177L22.322 29.393C22.322 29.393 23.385 29.999 25.439 29.999C27.498 29.999 30.354 28.459 30.354 26.247C30.354 23.586 26.369 23.394 26.369 22.206Z" fill="white"/>
<path d="M12.212 24.945L11.246 20.197C11.246 20.197 10.809 19.168 9.673 19.168C8.537 19.168 5.233 19.168 5.233 19.168C5.233 19.168 10.894 20.84 12.212 24.945Z" fill="#F5BC00"/>
</svg>
