<svg width="22" height="22" viewBox="0 0 22 22" fill="none" xmlns="http://www.w3.org/2000/svg">
<path d="M19.6507 17.2546H16.2957C14.1815 17.2546 12.4615 15.5345 12.4615 13.4203C12.4615 11.3061 14.1815 9.58606 16.2957 9.58606H19.6507C19.9157 9.58606 20.1301 9.37168 20.1301 9.10676V7.6689C20.1301 6.66384 19.3505 5.84646 18.3655 5.7672L15.6129 0.959363C15.3578 0.514705 14.9459 0.196894 14.453 0.0649253C13.9625 -0.0661444 13.4495 0.00269307 13.0105 0.258227L3.57442 5.75174H1.91716C0.859839 5.75174 0 6.61154 0 7.6689V19.1718C0 20.2291 0.859794 21.0889 1.91716 21.0889H18.2129C19.2702 21.0889 20.1301 20.2291 20.1301 19.1718V17.7339C20.1301 17.469 19.9157 17.2546 19.6507 17.2546ZM16.2073 3.92764L17.2516 5.75174H13.0742L16.2073 3.92764ZM5.47959 5.75174L13.493 1.08666C13.7097 0.959812 13.9629 0.926112 14.205 0.990726C14.4497 1.05624 14.6538 1.21445 14.7807 1.43583L14.7817 1.43758L7.37176 5.75174H5.47959Z" fill="currentColor"/>
<path d="M19.6503 10.5446H16.2953C14.7095 10.5446 13.4196 11.8346 13.4196 13.4204C13.4196 15.0061 14.7095 16.2961 16.2953 16.2961H19.6503C20.4432 16.2961 21.0882 15.6511 21.0882 14.8582V11.9825C21.0882 11.1896 20.4432 10.5446 19.6503 10.5446ZM16.2953 14.3789C15.7669 14.3789 15.3367 13.9488 15.3367 13.4204C15.3367 12.8919 15.7669 12.4618 16.2953 12.4618C16.8237 12.4618 17.2539 12.8919 17.2539 13.4204C17.2539 13.9488 16.8238 14.3789 16.2953 14.3789Z" fill="currentColor"/>
</svg>
